# xmcd
#
# Track frame offsets:
# 182
# 13700
# 28560
# 39840
# 54415
# 67287
# 79110
# 92372
# 103865
# 114240
# 126915
# 138860
# 152340
# 164355
# 176192
# 188902
#
# Disc length: 2672 seconds
#
#
# Revision: 0
# Processed by: cddbd v1.5PL3 Copyright (c) Steve Scherf et al.
# Submitted via: FreeRIP 2.70 
#
DISCID=c90a6e10
DTITLE=Big Joe Turner - Blues In The Night
DYEAR=2001
DGENRE=Blues
TTITLE0=I Can´t Give You Anything But Love
TTITLE1=Going To Chicago Blues
TTITLE2=Rocks In My Bes
TTITLE3=Sun Risin´ Blues
TTITLE4=Blues In The Night
TTITLE5=Cry Baby Blues
TTITLE6=Born To Gamble
TTITLE7=I Love Ya, I Love Ya
TTITLE8=Mardi Gras Blues
TTITLE9=Rainy Weather Blues
TTITLE10=My Heart Belongs To You
TTITLE11=Boogie Woogie Baby
TTITLE12=I Don´t Dig It
TTITLE13=Ooo-Ouch - Stop
TTITLE14=I Wish I Had A Dollar
TTITLE15=Fuzzy Wuzzy Honey
EXTD=Recorded 1940-1949
EXTT0=Fields, McHugh
EXTT1=Basie, Rushing
EXTT2=Ellington
EXTT3=Turner
EXTT4=Arlen, Mercer
EXTT5=Turner
EXTT6=Williams, Stansel, Batiste
EXTT7=Turner, Williams
EXTT8=Turner
EXTT9=Turner
EXTT10=Stidham
EXTT11=Turner
EXTT12=Williams, Cadrez
EXTT13=Brown
EXTT14=Turner
EXTT15=Turner
PLAYORDER=
